<?xml version="1.0" standalone="no"?>
<!DOCTYPE svg PUBLIC "-//W3C//DTD SVG 20010904//EN"
 "http://www.w3.org/TR/2001/REC-SVG-20010904/DTD/svg10.dtd">
<svg version="1.0" xmlns="http://www.w3.org/2000/svg"
 width="1145.000000pt" height="539.000000pt" viewBox="0 0 1145.000000 539.000000"
 preserveAspectRatio="xMidYMid meet">

<g transform="translate(0.000000,539.000000) scale(0.100000,-0.100000)"
fill="#000000" stroke="none">
<path d="M675 5304 c-116 -25 -208 -77 -300 -169 -60 -60 -90 -99 -117 -155
-72 -148 -68 -4 -68 -2240 0 -2237 -4 -2092 68 -2240 26 -54 58 -96 112 -151
83 -83 150 -126 255 -161 l70 -23 5060 0 5060 0 70 23 c105 35 172 78 255 161
54 55 86 97 112 151 72 148 68 3 68 2240 0 2236 4 2092 -68 2240 -51 104 -168
221 -272 272 -152 74 331 68 -5232 67 -4376 -1 -5012 -2 -5073 -15z m1734
-1228 c38 -20 85 -75 107 -125 20 -46 30 -50 67 -21 67 53 147 64 205 28 26
-16 44 -41 68 -94 19 -40 34 -77 34 -83 0 -5 5 -33 11 -60 l11 -51 52 6 c63 8
88 -3 137 -58 34 -40 37 -41 69 -30 101 36 195 0 242 -92 26 -51 58 -204 58
-280 l0 -58 28 6 c115 29 162 24 213 -22 16 -15 37 -51 48 -82 l18 -55 51 3
c69 5 114 -23 149 -92 46 -89 34 -234 -36 -416 -11 -30 -21 -59 -21 -63 0 -4
24 18 53 49 84 93 167 136 195 102 5 -7 13 -32 17 -55 9 -59 -16 -143 -92
-305 -69 -147 -72 -163 -53 -276 18 -103 1 -333 -27 -370 -22 -29 -62 -42 -64
-20 -1 7 -1 81 1 163 1 95 -3 161 -10 180 -16 41 -16 141 -1 190 7 22 42 102
78 177 36 75 63 145 61 155 -5 28 -86 -62 -251 -277 -154 -202 -282 -356 -300
-363 -22 -8 -47 13 -47 39 0 38 26 82 159 269 108 151 190 310 250 485 29 82
38 188 21 230 -26 62 -104 95 -114 48 -3 -13 -8 -57 -11 -98 -19 -234 -123
-473 -319 -733 -72 -96 -207 -233 -287 -292 -75 -55 -106 -57 -129 -8 -8 18
-17 33 -20 33 -3 0 -27 -31 -53 -69 -51 -72 -162 -188 -212 -221 -42 -28 -81
-25 -110 6 -25 27 -31 60 -26 131 1 18 -1 33 -5 33 -3 0 -28 -18 -54 -40 -51
-43 -122 -79 -156 -80 -11 0 -36 11 -55 25 l-34 26 -27 -30 c-50 -55 -135
-118 -170 -125 -68 -12 -91 16 -102 125 -9 86 6 195 56 402 22 93 38 171 35
173 -6 7 -78 -87 -156 -202 -193 -286 -402 -365 -492 -185 -116 232 -18 906
221 1511 56 142 190 415 248 503 67 103 224 277 276 305 80 44 146 53 195 28z
m4595 -255 c64 -31 95 -80 107 -169 6 -42 9 -425 7 -963 -3 -990 1 -932 -69
-998 -83 -80 -287 -78 -373 2 -68 64 -66 34 -66 1061 0 569 4 934 10 956 26
94 117 143 255 137 59 -2 94 -10 129 -26z m693 1 c50 -26 87 -72 102 -127 7
-25 11 -158 11 -352 l0 -313 -45 0 -45 0 0 303 c0 275 -2 306 -19 344 -25 55
-68 77 -146 77 -95 -1 -136 -32 -155 -119 -8 -35 -10 -311 -8 -925 3 -854 3
-876 23 -909 34 -57 66 -75 137 -75 82 1 124 22 149 77 17 38 19 68 19 300 l0
257 -80 0 -80 0 0 45 0 45 125 0 125 0 0 -319 c0 -342 -4 -377 -53 -429 -45
-48 -95 -66 -187 -67 -135 0 -205 37 -247 130 -17 37 -18 99 -21 969 -3 1028
-5 991 61 1053 49 47 107 64 207 60 63 -3 96 -9 127 -25z m701 11 c74 -24 124
-75 146 -151 13 -48 16 -111 16 -355 l0 -297 -100 0 -100 0 0 285 0 286 -25
24 c-44 45 -118 26 -135 -34 -13 -46 -13 -360 0 -468 12 -105 35 -153 160
-333 190 -272 203 -319 198 -711 l-3 -264 -28 -56 c-36 -73 -82 -105 -177
-120 -91 -14 -200 2 -252 36 -20 14 -50 46 -65 72 l-28 48 -3 328 -3 327 95 0
96 0 0 -257 c0 -268 7 -329 36 -350 29 -22 82 -16 109 12 l25 24 0 240 c0 132
-5 262 -11 289 -11 56 -57 135 -170 298 -80 114 -130 205 -156 283 -13 36 -17
110 -20 343 -5 334 0 374 59 442 61 70 214 97 336 59z m-2585 -31 c34 -17 55
-37 75 -70 l27 -47 3 -266 c3 -213 0 -279 -12 -332 -18 -75 -60 -164 -111
-236 -19 -27 -35 -53 -35 -60 0 -6 17 -18 38 -26 55 -23 91 -63 107 -119 19
-64 22 -802 4 -857 -18 -54 -58 -100 -105 -120 -38 -17 -64 -19 -216 -17
l-173 3 -3 1065 c-1 586 0 1075 3 1088 l6 23 172 -3 c157 -3 176 -5 220 -26z
m385 -1019 l2 -1043 110 0 110 0 0 -45 0 -45 -155 0 -155 0 0 1091 0 1090 43
-3 42 -3 3 -1042z m2690 -55 l-3 -1093 -90 0 -90 0 -3 1093 -2 1092 95 0 95 0
-2 -1092z m702 992 l0 -100 -90 0 -90 0 -2 -992 -3 -993 -75 -3 c-41 -2 -85 0
-97 3 l-23 5 0 990 0 989 -87 3 -88 3 -3 84 c-2 46 -1 90 2 98 4 10 60 13 281
13 l275 0 0 -100z m508 -2 l3 -97 -83 -3 -83 -3 -3 -397 -2 -398 85 0 85 0 0
-95 0 -95 -85 0 -85 0 0 -400 0 -400 85 0 86 0 -3 -97 -3 -98 -180 0 -180 0
-3 1080 c-1 594 0 1086 3 1093 3 10 46 12 182 10 l178 -3 3 -97z"/>
<path d="M2245 3941 c-142 -66 -325 -344 -479 -727 -118 -294 -193 -573 -242
-893 -21 -137 -24 -401 -5 -456 12 -33 15 -36 21 -20 4 11 10 47 14 80 10 82
47 215 103 370 43 120 230 585 277 692 134 302 283 552 439 734 84 100 81 92
59 141 -25 57 -74 98 -115 98 -18 0 -50 -9 -72 -19z"/>
<path d="M2627 3821 l-52 -27 2 -230 c2 -126 5 -229 8 -229 2 0 28 32 56 70
28 39 79 100 114 136 l63 65 -14 62 c-19 83 -28 103 -58 139 -36 43 -59 46
-119 14z"/>
<path d="M2429 3638 c-214 -266 -354 -526 -536 -993 -209 -539 -243 -645 -243
-766 0 -92 12 -91 127 14 158 142 298 318 344 430 20 48 38 77 55 87 22 13 37
48 96 225 63 192 87 253 153 400 27 58 40 122 56 262 13 121 9 357 -7 373 -8
8 -20 -1 -45 -32z"/>
<path d="M2927 3533 c-11 -10 -8 -93 3 -93 6 0 27 15 47 34 32 29 35 36 24 50
-13 16 -62 22 -74 9z"/>
<path d="M2772 3411 c-56 -58 -175 -229 -218 -314 -14 -27 -39 -96 -55 -153
-37 -134 -99 -302 -156 -423 -33 -71 -61 -160 -108 -346 -86 -339 -103 -419
-111 -497 -14 -137 14 -151 112 -56 l64 61 0 81 c1 275 132 778 297 1136 64
139 156 310 199 370 33 46 35 52 32 122 l-3 73 -53 -54z"/>
<path d="M3197 3453 c-17 -4 -18 -12 -10 -81 4 -43 8 -161 8 -264 0 -104 0
-188 0 -188 0 0 39 38 88 84 l87 83 0 53 c0 117 -35 252 -74 288 -23 21 -69
33 -99 25z"/>
<path d="M2989 3341 l-65 -59 -13 -128 c-54 -526 -221 -1049 -445 -1393 -26
-39 -44 -76 -41 -81 3 -6 19 -10 34 -10 36 0 100 49 170 129 45 53 61 83 102
194 27 73 56 146 63 162 8 17 26 59 41 95 15 36 70 153 122 260 103 212 123
277 145 472 16 146 -8 405 -38 415 -6 2 -40 -23 -75 -56z"/>
<path d="M2791 3088 c-30 -48 -124 -246 -163 -342 -120 -299 -190 -564 -223
-844 -5 -42 -3 -53 7 -50 20 6 168 308 216 438 85 234 155 519 177 725 3 33 8
68 11 78 7 24 -9 21 -25 -5z"/>
<path d="M3514 3024 l-40 -14 -18 -131 c-10 -71 -26 -165 -36 -207 -16 -66
-18 -96 -7 -81 2 2 31 42 64 89 34 47 91 118 128 158 63 68 67 75 61 107 -14
74 -76 106 -152 79z"/>
<path d="M3284 2855 c-104 -104 -145 -174 -199 -341 -72 -227 -163 -435 -258
-593 -55 -92 -97 -212 -97 -278 0 -76 42 -50 163 100 157 195 257 386 363 691
62 178 111 403 102 467 -3 22 -9 19 -74 -46z"/>
<path d="M3654 2753 c-125 -135 -360 -527 -458 -765 -36 -88 -43 -118 -27
-118 5 0 49 39 98 88 194 189 353 452 401 662 15 65 25 160 18 160 -4 0 -18
-12 -32 -27z"/>
<path d="M6800 3750 c-47 -12 -87 -59 -95 -112 -3 -24 -5 -443 -3 -933 3 -855
4 -891 22 -918 28 -42 72 -60 142 -61 70 0 104 17 134 67 19 31 20 58 20 947
0 889 -1 916 -20 947 -10 18 -29 39 -42 47 -29 19 -113 27 -158 16z"/>
<path d="M5508 3734 c-5 -4 -8 -262 -8 -573 0 -556 0 -565 19 -546 34 36 232
329 260 385 51 101 56 137 56 385 0 210 -2 233 -20 269 -34 68 -59 79 -187 84
-62 2 -116 1 -120 -4z"/>
<path d="M5622 2598 c-32 -51 -72 -124 -88 -163 l-29 -70 0 -310 0 -310 108
-3 c130 -3 167 10 200 72 21 40 22 49 22 396 0 345 -1 356 -22 403 -17 35 -31
51 -57 62 -62 26 -69 22 -134 -77z"/>
</g>
</svg>
